# xmcd
# Track frame offsets:
# 150
# 15907
# 28730
# 42612
# 56810
# 77412
# 88997
# 103287
# 115362
# 134627
# 145430
# 157050
#
# Disc length: 2346 seconds
# Revision: 0
# Processed by: cddbd v1.4PL0 Copyright (c) Steve Scherf et al.
# Submitted via: VisiTrax 2.9.5.180 - For more info visit www.synapsa.com
#
DISCID=af09280c
DTITLE=Stu Phillips - You love the hurt away
DYEAR=1900
DGENRE=
TTITLE0=You love the hurt away
TTITLE1=Church in the wildwood
TTITLE2=When I've learned
TTITLE3=Only God
TTITLE4=What a friend we have Jesus
TTITLE5=I want to thank you Lord
TTITLE6=Jesus do I ever need a savior
TTITLE7=Supper time
TTITLE8=No one ever told me
TTITLE9=Love isn't love
TTITLE10=Where no one stands alone
TTITLE11=Softly and tenderly
EXTD=
EXTT0=
EXTT1=
EXTT2=
EXTT3=
EXTT4=
EXTT5=
EXTT6=
EXTT7=
EXTT8=
EXTT9=
EXTT10=
EXTT11=
PLAYORDER=
